<svg aria-hidden="true" style="position: absolute; width: 0; height: 0; overflow: hidden;" version="1.1" xmlns="http://www.w3.org/2000/svg" xmlns:xlink="http://www.w3.org/1999/xlink">
<defs>
<symbol id="icon-logo" viewBox="0 0 76 32">
<path  d="M3.467 6.925l-1.267-0.767c-0.794-0.483-1.361-0.958-1.7-1.425-0.333-0.472-0.5-1.014-0.5-1.625 0-0.917 0.317-1.661 0.95-2.233 0.639-0.572 1.467-0.858 2.483-0.858 0.972 0 1.864 0.272 2.675 0.817v1.892c-0.839-0.806-1.742-1.208-2.708-1.208-0.544 0-0.992 0.128-1.342 0.383-0.35 0.25-0.525 0.572-0.525 0.967 0 0.35 0.128 0.678 0.383 0.983s0.669 0.625 1.242 0.958l1.275 0.75c1.422 0.844 2.133 1.922 2.133 3.233 0 0.933-0.314 1.692-0.942 2.275-0.622 0.583-1.433 0.875-2.433 0.875-1.15 0-2.197-0.353-3.142-1.058v-2.117c0.9 1.139 1.942 1.708 3.125 1.708 0.522 0 0.956-0.145 1.3-0.433 0.35-0.294 0.525-0.661 0.525-1.1 0-0.711-0.511-1.383-1.533-2.017zM16.608 0.167h1.667v11.642h-1.667v-5.067h-6.542v5.067h-1.667v-11.642h1.667v5.033h6.542v-5.033zM26.567 0c1.8 0 3.297 0.569 4.492 1.708 1.2 1.139 1.8 2.567 1.8 4.283s-0.605 3.139-1.817 4.267c-1.206 1.122-2.728 1.683-4.567 1.683-1.756 0-3.22-0.561-4.392-1.683-1.167-1.128-1.75-2.539-1.75-4.233 0-1.739 0.589-3.178 1.767-4.317s2.667-1.708 4.467-1.708zM26.633 1.583c-1.333 0-2.43 0.417-3.292 1.25-0.856 0.833-1.283 1.897-1.283 3.192 0 1.256 0.431 2.3 1.292 3.133s1.939 1.25 3.233 1.25c1.3 0 2.383-0.425 3.25-1.275 0.872-0.85 1.308-1.908 1.308-3.175 0-1.233-0.436-2.269-1.308-3.108-0.867-0.844-1.933-1.267-3.2-1.267zM34.808 11.808v-11.658h3.692c1.111 0 1.997 0.3 2.658 0.9s0.992 1.406 0.992 2.417c0 0.678-0.169 1.278-0.508 1.8s-0.803 0.903-1.392 1.142c-0.589 0.233-1.433 0.35-2.533 0.35h-1.233v5.050h-1.675zM38.208 1.633h-1.725v3.642h1.825c0.678 0 1.2-0.158 1.567-0.475 0.367-0.322 0.55-0.781 0.55-1.375 0-1.194-0.739-1.792-2.217-1.792zM11.3 28.444c0 0.994-0.342 1.789-1.025 2.383-0.678 0.594-1.628 0.892-2.85 0.892h-6.675v-11.55h5.583c0.722 0 1.35 0.069 1.883 0.208 0.539 0.139 0.972 0.331 1.3 0.575 0.328 0.239 0.572 0.522 0.733 0.85s0.242 0.686 0.242 1.075c0 0.422-0.083 0.814-0.25 1.175-0.167 0.356-0.375 0.65-0.625 0.883-0.244 0.228-0.492 0.389-0.742 0.483 0.789 0.311 1.389 0.706 1.8 1.183 0.417 0.472 0.625 1.086 0.625 1.842zM7.233 23.494c0-0.556-0.183-0.925-0.55-1.108s-0.939-0.275-1.717-0.275h-0.733v2.767h0.75c0.794 0 1.367-0.092 1.717-0.275 0.356-0.183 0.533-0.553 0.533-1.108zM7.8 28.303c0-0.989-0.717-1.483-2.15-1.483h-1.417v2.958h1.417c1.433 0 2.15-0.492 2.15-1.475zM25.717 31.719h-3.567l-0.942-2.342h-5.017l-0.958 2.342h-3.567l5.108-11.55h3.85l5.092 11.55zM20.408 27.369l-1.692-4.217-1.708 4.217h3.4zM39.4 31.719h-4.25l-4.417-5.408v5.408h-3.483v-11.55h3.483v5.167l4.183-5.167h3.783l-4.3 5.408 5 6.142zM49.625 31.719h-8.708v-11.55h8.567v2.317h-5.083v2.117h4.85v2.325h-4.85v2.467h5.225v2.325zM63.15 31.719h-3.742l-0.908-2.050c-0.333-0.75-0.633-1.297-0.9-1.642-0.267-0.35-0.528-0.572-0.783-0.667-0.25-0.1-0.575-0.15-0.975-0.15h-0.392v4.508h-3.483v-11.55h5.925c0.956 0 1.739 0.194 2.35 0.583s1.050 0.861 1.317 1.417c0.272 0.556 0.408 1.083 0.408 1.583 0 0.583-0.114 1.078-0.342 1.483-0.222 0.4-0.458 0.692-0.708 0.875s-0.531 0.358-0.842 0.525c0.372 0.217 0.678 0.475 0.917 0.775 0.244 0.294 0.575 0.894 0.992 1.8l1.167 2.508zM58.417 23.819c0-0.533-0.175-0.906-0.525-1.117s-0.919-0.317-1.708-0.317h-0.733v2.783h0.75c0.85 0 1.431-0.092 1.742-0.275 0.317-0.189 0.475-0.547 0.475-1.075zM75.5 20.169l-4.525 6.258v5.292h-3.483v-5.225l-4.608-6.325h3.617l2.65 3.633 2.658-3.633h3.692z"></path>
</symbol>
<symbol id="icon-arrow" viewBox="0 0 38 32">
<path d="M0.625 17.218c-0.386-0.386-0.625-0.919-0.625-1.508s0.239-1.122 0.625-1.508l13.577-13.577c0.39-0.415 0.942-0.673 1.555-0.673 1.178 0 2.133 0.955 2.133 2.133 0 0.613-0.259 1.166-0.673 1.555l-0.001 0.001-12.066 12.068 12.068 12.068c0.402 0.388 0.651 0.932 0.651 1.534 0 1.178-0.955 2.133-2.133 2.133-0.602 0-1.146-0.249-1.534-0.651l-0.001-0.001zM37.892 17.843h-35.759v-4.267h35.759z"></path>
</symbol>
<symbol id="icon-facebook" viewBox="0 0 32 32">
<path  d="M0 16c0-8.837 7.163-16 16-16s16 7.163 16 16-7.163 16-16 16-16-7.163-16-16zM17.668 25.408v-8.705h2.403l0.318-3h-2.721l0.004-1.501c0-0.783 0.074-1.202 1.198-1.202h1.502v-3h-2.402c-2.887 0-3.903 1.455-3.903 3.902v1.801h-1.8v3h1.8v8.705z"></path>
</symbol>
<symbol id="icon-close" viewBox="0 0 32 32">
<path stroke-linejoin="miter" stroke-linecap="round" stroke-miterlimit="4" stroke-width="3.5556" d="M1.778 1.778l14.222 14.222 14.222-14.222M1.778 30.222l14.222-14.222 14.222 14.222"></path>
</symbol>
<symbol id="icon-instagram" viewBox="0 0 32 32">
<path  d="M0 16c0-8.837 7.163-16 16-16s16 7.163 16 16-7.163 16-16 16-16-7.163-16-16zM16 7.467c-2.317 0-2.608 0.010-3.518 0.051-0.908 0.042-1.528 0.186-2.070 0.397-0.592 0.227-1.097 0.561-1.512 0.983l-0.001 0.001c-0.423 0.416-0.758 0.92-0.975 1.482l-0.010 0.029c-0.211 0.543-0.355 1.163-0.396 2.071-0.040 0.91-0.051 1.201-0.051 3.52 0 2.317 0.010 2.607 0.051 3.517 0.042 0.908 0.186 1.528 0.397 2.070 0.227 0.592 0.561 1.097 0.983 1.512l0.001 0c0.474 0.474 0.95 0.767 1.511 0.985 0.543 0.21 1.163 0.354 2.072 0.396 0.91 0.041 1.2 0.052 3.518 0.052s2.607-0.010 3.518-0.052c0.908-0.042 1.529-0.185 2.072-0.396 0.591-0.227 1.094-0.562 1.509-0.984l0.001-0.001c0.475-0.475 0.767-0.95 0.985-1.512 0.21-0.543 0.354-1.163 0.397-2.071 0.040-0.91 0.051-1.2 0.051-3.518s-0.010-2.608-0.051-3.518c-0.043-0.909-0.187-1.53-0.397-2.072-0.227-0.591-0.562-1.094-0.984-1.509l-0.001-0.001c-0.416-0.422-0.919-0.757-1.481-0.974l-0.029-0.010c-0.545-0.211-1.165-0.355-2.074-0.397s-1.2-0.051-3.518-0.051z"></path>
<path  d="M15.235 9.005h0.765c2.279 0 2.549 0.008 3.449 0.050 0.832 0.037 1.283 0.176 1.584 0.293 0.398 0.155 0.682 0.34 0.98 0.638 0.3 0.299 0.484 0.583 0.64 0.982 0.116 0.3 0.255 0.752 0.293 1.584 0.041 0.9 0.050 1.17 0.050 3.447s-0.009 2.547-0.050 3.447c-0.038 0.832-0.177 1.284-0.294 1.584-0.144 0.384-0.362 0.712-0.637 0.979l-0.001 0.001c-0.268 0.276-0.596 0.494-0.962 0.632l-0.018 0.006c-0.301 0.118-0.753 0.256-1.585 0.294-0.9 0.041-1.17 0.050-3.449 0.050s-2.548-0.009-3.448-0.050c-0.832-0.038-1.283-0.177-1.584-0.294-0.385-0.144-0.713-0.361-0.981-0.637l-0.001-0.001c-0.276-0.268-0.493-0.596-0.632-0.962l-0.006-0.018c-0.117-0.301-0.256-0.753-0.294-1.585-0.041-0.9-0.050-1.17-0.050-3.448 0-2.28 0.009-2.548 0.050-3.447 0.038-0.833 0.177-1.284 0.294-1.585 0.154-0.398 0.34-0.683 0.638-0.981s0.583-0.484 0.982-0.639c0.3-0.117 0.752-0.256 1.584-0.294 0.787-0.036 1.093-0.046 2.683-0.048zM20.555 10.422c-0.566 0-1.024 0.458-1.024 1.024s0.458 1.024 1.024 1.024v0c0.566 0 1.024-0.458 1.024-1.024s-0.458-1.024-1.024-1.024v0zM16 11.618c-2.42 0-4.383 1.962-4.383 4.383s1.962 4.383 4.383 4.383v0c2.42 0 4.383-1.962 4.383-4.383s-1.962-4.383-4.383-4.383v0z"></path>
<path  d="M16 13.155c1.571 0 2.845 1.274 2.845 2.845s-1.274 2.845-2.845 2.845v0c-1.571 0-2.845-1.274-2.845-2.845s1.274-2.845 2.845-2.845v0z"></path>
</symbol>
<symbol id="icon-group" viewBox="0 0 32 32">
<path  d="M15.636 5.957l-0.299 0.029-0.196-2.11-0.74 0.071-0.024-0.262 1.777-0.17 0.024 0.262-0.737 0.071zM17.445 4.166q0.329 0.026 0.51 0.271 0.183 0.245 0.144 0.708-0.025 0.302-0.136 0.504-0.107 0.199-0.282 0.292-0.172 0.090-0.394 0.072c-0.088-0.006-0.169-0.026-0.245-0.058l0.005 0.002c-0.067-0.029-0.125-0.065-0.176-0.108l0.001 0.001c-0.043-0.041-0.081-0.087-0.114-0.137l-0.002-0.003-0.020-0.002q0.002 0.057 0.001 0.144c-0 0.053-0.002 0.106-0.007 0.157l0-0.007-0.062 0.732-0.293-0.023 0.218-2.58 0.239 0.019 0.019 0.246 0.013 0.001q0.060-0.072 0.138-0.129 0.082-0.057 0.188-0.086 0.109-0.028 0.253-0.017zM17.371 4.408q-0.179-0.014-0.295 0.047-0.115 0.058-0.177 0.19t-0.082 0.342l-0.005 0.056q-0.018 0.22 0.015 0.376t0.137 0.245q0.107 0.089 0.299 0.104 0.163 0.013 0.274-0.068 0.114-0.081 0.177-0.23 0.067-0.152 0.083-0.351 0.026-0.306-0.078-0.498-0.101-0.192-0.347-0.212zM19.339 4.495q0.316 0.083 0.431 0.261t0.033 0.481l-0.315 1.177-0.206-0.054 0.011-0.259-0.013-0.003c-0.057 0.044-0.122 0.083-0.191 0.115l-0.006 0.003c-0.060 0.027-0.131 0.042-0.205 0.043h-0q-0.108 0.003-0.253-0.035c-0.102-0.025-0.191-0.070-0.268-0.129l0.002 0.001c-0.069-0.055-0.121-0.13-0.148-0.215l-0.001-0.003q-0.040-0.135 0.007-0.309 0.069-0.258 0.309-0.343 0.242-0.089 0.668 0.009l0.296 0.067 0.028-0.103q0.058-0.216-0.013-0.324t-0.242-0.153c-0.063-0.018-0.136-0.028-0.21-0.028-0.021 0-0.041 0.001-0.062 0.002l0.003-0q-0.133 0.007-0.253 0.030l-0.030-0.236c0.087-0.021 0.187-0.033 0.289-0.033 0.002 0 0.004 0 0.006 0h-0c0.009-0 0.021-0 0.032-0 0.108 0 0.212 0.014 0.312 0.042l-0.008-0.002zM19.176 5.439q-0.326-0.071-0.476-0.014-0.147 0.058-0.191 0.223-0.039 0.145 0.030 0.235 0.072 0.092 0.211 0.128 0.22 0.057 0.397-0.024 0.178-0.085 0.245-0.336l0.041-0.155zM21.951 5.646l-0.64 1.403 0.237 0.106-0.36 0.789-0.259-0.116 0.257-0.565-1.136-0.509-0.258 0.565-0.256-0.115 0.36-0.789 0.131 0.059q0.229-0.131 0.424-0.318c0.132-0.125 0.25-0.261 0.353-0.409l0.006-0.008q0.163-0.23 0.28-0.478zM21.235 5.577q-0.106 0.201-0.259 0.399c-0.102 0.132-0.209 0.249-0.324 0.357l-0.001 0.001q-0.171 0.165-0.344 0.263l0.746 0.334 0.544-1.193zM22.251 6.858q-0.017 0.024-0.052 0.069-0.031 0.044-0.070 0.094l-0.072 0.092q-0.033 0.042-0.055 0.067l1.647-0.685 0.297 0.204-1.025 1.466-0.225-0.155 0.684-0.979 0.103-0.136q0.052-0.069 0.080-0.103l-1.64 0.686-0.299-0.206 1.025-1.466 0.228 0.157zM23.888 10.217l-0.201-0.205 0.446-0.431-1.033-1.057 1.286-1.243 0.205 0.21-1.109 1.071 0.646 0.661 1.109-1.071 0.205 0.21-1.111 1.074 0.177 0.181zM26.203 9.414l-1.442 1.058-0.175-0.236 1.442-1.058zM26.658 8.902q0.040 0.054 0.032 0.121-0.003 0.068-0.081 0.126-0.075 0.055-0.145 0.040c-0.044-0.008-0.082-0.032-0.107-0.066l-0-0c-0.023-0.029-0.037-0.066-0.037-0.107 0-0.007 0-0.014 0.001-0.021l-0 0.001q0.008-0.068 0.083-0.123 0.078-0.057 0.143-0.043c0.046 0.009 0.085 0.035 0.111 0.071l0 0.001zM25.348 11.061l-0.153-0.25 1.527-0.931 0.153 0.25zM26.968 9.355q0.074-0.045 0.13-0.024c0.039 0.013 0.071 0.038 0.091 0.072l0 0.001c0.016 0.025 0.026 0.055 0.026 0.088 0 0.009-0.001 0.019-0.002 0.028l0-0.001q-0.007 0.059-0.081 0.104-0.071 0.044-0.133 0.027c-0.039-0.013-0.071-0.039-0.091-0.072l-0-0.001c-0.016-0.025-0.026-0.055-0.026-0.088 0-0.009 0.001-0.019 0.002-0.028l-0 0.001q0.012-0.062 0.084-0.106zM27.296 9.889q0.074-0.045 0.128-0.027c0.039 0.013 0.071 0.038 0.091 0.072l0 0.001c0.016 0.025 0.026 0.055 0.026 0.088 0 0.009-0.001 0.019-0.002 0.028l0-0.001q-0.007 0.059-0.081 0.104-0.071 0.043-0.133 0.026c-0.039-0.013-0.071-0.038-0.091-0.072l-0-0.001c-0.016-0.025-0.026-0.055-0.026-0.088 0-0.009 0.001-0.019 0.002-0.028l-0 0.001q0.014-0.060 0.086-0.103zM28.239 14.134l-1.732 0.447-0.066-0.255 1.105-0.285q0.068-0.018 0.143-0.033 0.076-0.013 0.149-0.024l-0.002-0.010-1.538-0.206-0.062-0.239 1.251-0.909-0.003-0.010c-0.036 0.014-0.084 0.028-0.132 0.041l-0.011 0.003q-0.073 0.022-0.151 0.043l-1.095 0.283-0.066-0.255 1.732-0.447 0.097 0.378-1.252 0.906 1.536 0.196zM27.468 16.832q-0.223 0.012-0.399-0.039c-0.115-0.031-0.214-0.083-0.3-0.152l0.001 0.001c-0.083-0.067-0.15-0.152-0.195-0.249l-0.002-0.004c-0.045-0.1-0.073-0.216-0.077-0.338l-0-0.002c-0.001-0.016-0.002-0.034-0.002-0.052 0-0.099 0.017-0.195 0.047-0.284l-0.002 0.006q0.056-0.153 0.17-0.27c0.078-0.079 0.172-0.142 0.275-0.187l0.006-0.002q0.17-0.069 0.394-0.081 0.297-0.016 0.505 0.073 0.212 0.089 0.328 0.27 0.119 0.181 0.132 0.437 0.012 0.243-0.088 0.432-0.097 0.192-0.299 0.307-0.198 0.117-0.494 0.133zM27.401 15.482q-0.21 0.011-0.364 0.073-0.15 0.065-0.228 0.186t-0.068 0.301 0.098 0.292 0.245 0.157q0.16 0.048 0.369 0.037 0.213-0.011 0.36-0.076t0.221-0.185q0.078-0.118 0.068-0.301-0.014-0.273-0.2-0.387t-0.503-0.097z"></path>
<path  d="M28.123 19.145l-0.749-0.853-1.030 0.66 0.050-0.33 1.013-0.636-0.898-0.13 0.041-0.271 0.898 0.13-0.783-0.895 0.050-0.33 0.792 0.924 0.968-0.605-0.048 0.317-0.966 0.592 0.858 0.124-0.041 0.27-0.858-0.124 0.751 0.844z"></path>
<path  d="M27.902 19.433l-0.105 0.296-1.091 0.033q-0.096 0.002-0.184-0c-0.011 0-0.023 0-0.036 0-0.048 0-0.096-0.001-0.143-0.004l0.007 0c-0.057-0.002-0.11-0.007-0.162-0.015l0.008 0.001-0.004 0.012q0.072 0.046 0.184 0.131 0.115 0.086 0.229 0.174l0.837 0.675-0.106 0.299-1.667-1.392c-0.084-0.070-0.158-0.147-0.222-0.233l-0.003-0.004c-0.057-0.072-0.097-0.159-0.113-0.255l-0-0.003q-0.026-0.136 0.032-0.3 0.026-0.076 0.056-0.129 0.026-0.054 0.050-0.092l0.221 0.076c-0.010 0.016-0.024 0.041-0.037 0.067l-0.005 0.010c-0.014 0.028-0.029 0.061-0.041 0.096l-0.002 0.006q-0.035 0.098-0.021 0.18 0.009 0.084 0.061 0.159 0.049 0.073 0.128 0.14l0.193 0.166zM26.29 22.345l0.275-0.515-1.365-0.716 0.137-0.256 1.365 0.716 0.272-0.509 0.218 0.115-0.683 1.281zM25.297 23.146q-0.141 0.186-0.28 0.274t-0.276 0.081q-0.136-0.002-0.273-0.104-0.133-0.1-0.186-0.235-0.054-0.132-0.013-0.297t0.191-0.362l0.491-0.645 1.431 1.073-0.178 0.234-0.587-0.44zM24.633 23.153q0.131 0.098 0.247 0.039 0.117-0.054 0.242-0.219l0.301-0.396-0.459-0.344-0.305 0.401q-0.113 0.149-0.132 0.285-0.021 0.138 0.107 0.234zM23.38 25.236q0.221 0.322 0.311 0.591 0.090 0.274 0.047 0.5-0.044 0.232-0.227 0.424c-0.101 0.106-0.2 0.206-0.301 0.304l-0.003 0.002q-0.151 0.146-0.283 0.272l-0.186-0.184q0.064-0.060 0.141-0.136 0.079-0.074 0.159-0.152 0.082-0.075 0.156-0.15c0.044-0.042 0.086-0.083 0.126-0.126l0.001-0.001q0.078-0.081 0.118-0.177c0.026-0.058 0.042-0.126 0.042-0.198 0-0.003-0-0.006-0-0.008v0c-0.004-0.089-0.022-0.172-0.052-0.25l0.002 0.006c-0.042-0.112-0.091-0.208-0.15-0.297l0.003 0.006-0.017 0.011c-0.004 0.065-0.015 0.126-0.033 0.184l0.001-0.005c-0.026 0.078-0.059 0.145-0.101 0.207l0.002-0.003q-0.070 0.104-0.192 0.186-0.193 0.131-0.379 0.132c-0.005 0-0.011 0-0.017 0-0.124 0-0.24-0.038-0.336-0.102l0.002 0.001q-0.168-0.104-0.303-0.302-0.168-0.245-0.195-0.469t0.068-0.409q0.097-0.183 0.299-0.32c0.089-0.063 0.196-0.108 0.311-0.129l0.005-0.001c0.030-0.004 0.065-0.007 0.1-0.007 0.084 0 0.164 0.014 0.238 0.041l-0.005-0.002q0.168 0.056 0.331 0.195t0.316 0.362zM22.202 24.991q-0.122 0.082-0.176 0.192-0.057 0.111-0.030 0.258t0.156 0.334q0.154 0.226 0.329 0.297 0.173 0.076 0.366-0.055 0.122-0.082 0.183-0.205 0.064-0.12 0.083-0.234t0.015-0.179c-0.064-0.093-0.129-0.174-0.199-0.25l0.001 0.001c-0.064-0.070-0.138-0.131-0.218-0.181l-0.004-0.003c-0.070-0.041-0.154-0.066-0.244-0.068h-0.001q-0.128 0.002-0.26 0.092zM22.090 27.021l-0.285 0.13-0.776-0.765c-0.042-0.042-0.083-0.086-0.124-0.13l-0.003-0.003c-0.039-0.040-0.077-0.081-0.114-0.123l-0.003-0.003c-0.032-0.036-0.064-0.076-0.093-0.117l-0.003-0.004-0.012 0.006q0.016 0.084 0.033 0.224 0.018 0.142 0.032 0.286l0.091 1.073-0.288 0.131-0.146-2.17c-0.002-0.030-0.004-0.064-0.004-0.099 0-0.080 0.007-0.159 0.021-0.235l-0.001 0.008c0.014-0.1 0.053-0.189 0.109-0.263l-0.001 0.001q0.080-0.114 0.238-0.185c0.037-0.018 0.081-0.035 0.126-0.048l0.006-0.001q0.057-0.019 0.101-0.028l0.097 0.212c-0.040 0.010-0.068 0.018-0.096 0.027l0.012-0.003c-0.041 0.013-0.075 0.026-0.108 0.042l0.005-0.002q-0.094 0.043-0.144 0.11c-0.036 0.043-0.061 0.095-0.072 0.152l-0 0.002q-0.020 0.086-0.013 0.189l0.014 0.254zM18.872 27.874l0.561-0.161-0.425-1.482 0.279-0.080 0.425 1.482 0.555-0.159 0.068 0.237-1.395 0.4zM17.958 27.214c-0.002-0.023-0.004-0.053-0.006-0.083l-0-0.003c-0.003-0.030-0.006-0.070-0.009-0.111l-0-0.005q-0.003-0.060-0.006-0.117c-0.001-0.025-0.002-0.055-0.002-0.086v-0.001l-0.796 1.592-0.358 0.039-0.186-1.779 0.272-0.029 0.11 1.049 0.014 0.139 0.011 0.17q0.006 0.087 0.007 0.13l0.79-1.588 0.362-0.039 0.186 1.779-0.275 0.030zM13.998 26.272q0.232 0.048 0.395 0.18 0.16 0.132 0.222 0.352 0.059 0.22-0.007 0.53-0.068 0.323-0.219 0.503t-0.354 0.237q-0.206 0.056-0.441 0.008c-0.095-0.020-0.18-0.048-0.259-0.085l0.007 0.003c-0.072-0.030-0.134-0.066-0.191-0.109l0.002 0.002 0.139-0.22q0.072 0.045 0.171 0.093t0.191 0.067q0.177 0.036 0.307-0.015t0.217-0.187 0.133-0.354q0.044-0.209 0.020-0.367t-0.119-0.256-0.262-0.132c-0.064-0.015-0.137-0.023-0.213-0.023-0.016 0-0.031 0-0.047 0.001l0.002-0q-0.117 0.006-0.218 0.030l0.054-0.255q0.098-0.028 0.211-0.028 0.11-0.005 0.26 0.026zM12.788 27.919l-0.357-0.132 0.011-1.085q-0.001-0.082 0.003-0.159t0.014-0.151q0.006-0.072 0.021-0.141l-0.012-0.005c-0.041 0.066-0.082 0.122-0.125 0.175l0.003-0.003q-0.077 0.1-0.156 0.195l-0.692 0.829-0.357-0.132 1.446-1.642c0.072-0.086 0.155-0.16 0.248-0.221l0.004-0.003c0.079-0.053 0.173-0.090 0.275-0.103l0.003-0q0.142-0.018 0.305 0.042 0.078 0.029 0.131 0.059 0.054 0.027 0.091 0.052l-0.099 0.262c-0.016-0.010-0.041-0.024-0.067-0.038l-0.010-0.005c-0.027-0.014-0.060-0.029-0.094-0.042l-0.007-0.002q-0.097-0.036-0.18-0.024c-0.060 0.008-0.114 0.030-0.16 0.063l0.001-0.001c-0.054 0.037-0.102 0.078-0.143 0.124l-0.138 0.156zM10.805 26.331q0.079-0.135 0.043-0.245-0.041-0.108-0.185-0.192c-0.083-0.050-0.18-0.088-0.283-0.108l-0.005-0.001c-0.080-0.012-0.173-0.020-0.267-0.020-0.016 0-0.033 0-0.049 0.001l0.002-0-0.388 0.662-0.254-0.147 0.905-1.543 0.254 0.147-0.403 0.688c0.026-0.001 0.057-0.002 0.088-0.002 0.087 0 0.173 0.007 0.257 0.019l-0.009-0.001q0.151 0.026 0.328 0.127 0.237 0.137 0.297 0.337 0.057 0.199-0.064 0.406l-0.339 0.579-0.254-0.147zM8.255 25.324q-0.251-0.21-0.278-0.42t0.176-0.449l0.789-0.928 0.164 0.137-0.121 0.23 0.010 0.009q0.121-0.024 0.229-0.022c0.074 0.003 0.144 0.021 0.207 0.050l-0.003-0.001q0.098 0.044 0.214 0.14 0.123 0.103 0.186 0.23 0.060 0.125 0.041 0.261-0.021 0.139-0.138 0.276-0.173 0.204-0.427 0.178-0.256-0.023-0.6-0.294l-0.239-0.188-0.069 0.081q-0.145 0.171-0.127 0.299t0.153 0.242q0.107 0.090 0.232 0.138 0.123 0.051 0.242 0.081l-0.074 0.226c-0.107-0.024-0.201-0.057-0.289-0.1l0.008 0.003c-0.109-0.049-0.204-0.109-0.288-0.18l0.002 0.001zM8.807 24.541q0.264 0.204 0.424 0.217 0.158 0.010 0.268-0.119 0.097-0.114 0.074-0.226-0.026-0.114-0.136-0.206-0.174-0.146-0.369-0.148-0.197 0-0.366 0.199l-0.104 0.122z"></path>
<path  d="M8.414 23.042q0.156 0.178 0.206 0.382 0.047 0.201-0.036 0.415-0.086 0.211-0.325 0.418-0.25 0.216-0.479 0.269t-0.425-0.025q-0.199-0.080-0.357-0.26c-0.056-0.064-0.106-0.135-0.148-0.212l-0.003-0.006c-0.034-0.057-0.064-0.123-0.084-0.193l-0.002-0.006 0.244-0.092q0.030 0.080 0.080 0.178t0.112 0.168q0.119 0.136 0.254 0.173t0.286-0.018 0.32-0.202q0.161-0.14 0.238-0.281t0.060-0.277-0.129-0.264c-0.056-0.066-0.119-0.123-0.189-0.172l-0.003-0.002c-0.055-0.038-0.118-0.074-0.184-0.105l-0.008-0.003 0.197-0.17q0.095 0.037 0.185 0.105 0.091 0.063 0.192 0.179zM6.090 23.026l0.625-0.378-0.462-0.758-0.625 0.378-0.184-0.302 1.539-0.931 0.184 0.302-0.671 0.406 0.462 0.758 0.671-0.406 0.184 0.302-1.539 0.931zM6.003 20.53q0.029-0.010 0.083-0.027 0.050-0.018 0.111-0.037l0.112-0.034q0.051-0.015 0.084-0.024l-1.737-0.382-0.124-0.338 1.679-0.616 0.094 0.257-1.121 0.412-0.162 0.052q-0.083 0.026-0.124 0.039l1.732 0.377 0.126 0.341-1.679 0.616-0.096-0.26zM4.178 17.118l1.77-0.259 0.037 0.261-1.129 0.165q-0.069 0.010-0.146 0.018l-0.151 0.009 0.001 0.010 1.506 0.37 0.035 0.244-1.342 0.77 0.001 0.010q0.072-0.017 0.148-0.029 0.075-0.014 0.155-0.026l1.119-0.164 0.038 0.261-1.77 0.259-0.056-0.386 1.342-0.766-1.505-0.36zM5.104 16.207q0.040 0.002 0.103 0.009l0.133 0.014q0.066 0.007 0.126 0.017 0.056 0.007 0.089 0.012l-1.376-1.004 0.027-0.43 1.796 0.102-0.020 0.333-0.956-0.054c-0.067-0.004-0.121-0.008-0.175-0.014l0.019 0.002-0.179-0.017-0.136-0.018 1.373 0.997-0.027 0.433-1.796-0.102 0.021-0.337zM4.829 11.974q0.075-0.189 0.184-0.308 0.106-0.12 0.236-0.158 0.127-0.040 0.267 0.015 0.152 0.060 0.209 0.179 0.054 0.118 0.036 0.279l0.012 0.005q0.068-0.088 0.151-0.152t0.184-0.082q0.102-0.021 0.229 0.029 0.137 0.053 0.217 0.175 0.082 0.118 0.084 0.302 0.003 0.18-0.095 0.425-0.047 0.118-0.103 0.221c-0.037 0.068-0.074 0.126-0.116 0.18l0.002-0.003c-0.036 0.047-0.075 0.088-0.117 0.125l-0.001 0.001-0.246-0.096q0.092-0.086 0.189-0.213 0.099-0.13 0.167-0.3 0.050-0.124 0.061-0.234 0.013-0.113-0.022-0.195-0.039-0.083-0.144-0.125-0.096-0.038-0.176-0.008-0.083 0.028-0.156 0.121-0.072 0.090-0.137 0.251l-0.089 0.223-0.224-0.088 0.072-0.18q0.086-0.214 0.080-0.363-0.007-0.153-0.147-0.208-0.118-0.046-0.217 0.030-0.097 0.073-0.17 0.256-0.054 0.137-0.069 0.253c-0.009 0.063-0.014 0.136-0.014 0.21 0 0.017 0 0.033 0.001 0.049l-0-0.002-0.256 0.011c-0.001-0.015-0.001-0.032-0.001-0.049 0-0.093 0.009-0.184 0.027-0.273l-0.001 0.009c0.024-0.119 0.055-0.223 0.096-0.323l-0.004 0.011zM5.996 9.657l0.61 0.427 0.562-0.792-0.61-0.427 0.17-0.239 1.465 1.025-0.17 0.239-0.653-0.457-0.562 0.792 0.653 0.457-0.17 0.239-1.465-1.025zM7.792 7.437q0.234-0.228 0.447-0.235t0.433 0.216l0.854 0.868-0.153 0.149-0.219-0.141-0.010 0.009q0.013 0.122 0 0.228c-0.010 0.074-0.035 0.14-0.070 0.199l0.001-0.002q-0.053 0.094-0.161 0.198-0.115 0.111-0.248 0.162c-0.047 0.018-0.102 0.029-0.158 0.029-0.038 0-0.075-0.005-0.11-0.014l0.003 0.001q-0.137-0.035-0.263-0.163-0.187-0.19-0.137-0.439 0.047-0.251 0.352-0.566l0.211-0.219-0.075-0.076q-0.157-0.159-0.287-0.154t-0.257 0.129c-0.064 0.062-0.118 0.133-0.159 0.213l-0.002 0.005c-0.036 0.064-0.071 0.141-0.1 0.22l-0.004 0.012-0.219-0.094q0.039-0.127 0.124-0.269 0.082-0.145 0.206-0.266zM8.523 8.056q-0.23 0.242-0.258 0.399-0.025 0.155 0.094 0.276 0.105 0.107 0.219 0.094 0.116-0.015 0.219-0.115 0.163-0.158 0.184-0.351 0.019-0.195-0.164-0.381l-0.112-0.114zM10.361 5.66l0.987 1.491-0.221 0.145-0.63-0.952c-0.019-0.027-0.044-0.068-0.069-0.109l-0.009-0.015-0.072-0.132-0.008 0.005 0.305 1.52-0.206 0.136-1.268-0.888-0.008 0.005q0.046 0.058 0.088 0.122 0.045 0.062 0.089 0.129l0.624 0.943-0.22 0.145-0.987-1.491 0.326-0.214 1.265 0.89-0.314-1.514zM11.668 6.171q0.011 0.028 0.029 0.082 0.020 0.050 0.040 0.11l0.037 0.111q0.016 0.051 0.025 0.083l0.342-1.744 0.335-0.132 0.656 1.664-0.255 0.1-0.438-1.111-0.056-0.161q-0.029-0.082-0.042-0.123l-0.337 1.739-0.338 0.133-0.656-1.664 0.258-0.101z"></path>
</symbol>
<symbol id="icon-menu" viewBox="0 0 32 32">
<path  d="M29.333 24.007c0 0.733-0.595 1.327-1.327 1.327h-10.68c-0.733 0-1.327-0.594-1.327-1.327s0.594-1.327 1.327-1.327h10.68c0.733 0 1.327 0.593 1.327 1.327zM29.333 16c0 0.733-0.595 1.327-1.327 1.327h-24.013c-0.733 0-1.327-0.594-1.327-1.327s0.594-1.327 1.327-1.327h24.013c0.733 0 1.327 0.595 1.327 1.327zM28.007 9.32c0.733 0 1.327-0.594 1.327-1.327s-0.594-1.327-1.327-1.327h-16.013c-0.733 0-1.327 0.594-1.327 1.327s0.594 1.327 1.327 1.327v0z"></path>
</symbol>
</defs>
</svg>
